{
  "accessors": [
    {
      "bufferView": 2,
      "componentType": 5126,
      "count": 65532,
      "max": [
        5.503007888793945,
        27.083669662475586,
        18.992389678955078
      ],
      "min": [
        -22.896705627441406,
        -0.6073493957519531,
        -0.10825347900390625
      ],
      "type": "VEC3"
    },
    {
      "bufferView": 2,
      "byteOffset": 786384,
      "componentType": 5126,
      "count": 65532,
      "max": [
        0.9987898468971252,
        0.9999173879623413,
        0.9999917149543762
      ],
      "min": [
        -0.9998987317085266,
        -0.9997716546058655,
        -0.9999917149543762
      ],
      "type": "VEC3"
    },
    {
      "bufferView": 1,
      "componentType": 5126,
      "count": 65532,
      "max": [
        0.999286949634552,
        0.9851073026657104
      ],
      "min": [
        0.000244140625,
        0.00026645197067409754
      ],
      "type": "VEC2"
    },
    {
      "bufferView": 1,
      "byteOffset": 524256,
      "componentType": 5126,
      "count": 65532,
      "max": [
        0.999286949634552,
        0.9851073026657104
      ],
      "min": [
        0.000244140625,
        0.00026645197067409754
      ],
      "type": "VEC2"
    },
    {
      "bufferView": 0,
      "componentType": 5125,
      "count": 321897,
      "type": "SCALAR"
    },
    {
      "bufferView": 2,
      "byteOffset": 1572768,
      "componentType": 5126,
      "count": 65532,
      "max": [
        15.918648719787598,
        24.362272262573242,
        19.25275993347168
      ],
      "min": [
        -22.908180236816406,
        -21.49811553955078,
        -3.5418968200683594
      ],
      "type": "VEC3"
    },
    {
      "bufferView": 2,
      "byteOffset": 2359152,
      "componentType": 5126,
      "count": 65532,
      "max": [
        0.9998645782470703,
        0.9998565912246704,
        0.9999837279319763
      ],
      "min": [
        -0.9999685287475586,
        -0.9999950528144836,
        -0.9999886155128479
      ],
      "type": "VEC3"
    },
    {
      "bufferView": 1,
      "byteOffset": 1048512,
      "componentType": 5126,
      "count": 65532,
      "max": [
        0.9996315240859985,
        0.9850659370422363
      ],
      "min": [
        0.000244140625,
        0.0002725316444411874
      ],
      "type": "VEC2"
    },
    {
      "bufferView": 1,
      "byteOffset": 1572768,
      "componentType": 5126,
      "count": 65532,
      "max": [
        0.9996315240859985,
        0.9850659370422363
      ],
      "min": [
        0.000244140625,
        0.0002725316444411874
      ],
      "type": "VEC2"
    },
    {
      "bufferView": 0,
      "byteOffset": 1287588,
      "componentType": 5125,
      "count": 288978,
      "type": "SCALAR"
    },
    {
      "bufferView": 2,
      "byteOffset": 3145536,
      "componentType": 5126,
      "count": 65532,
      "max": [
        9.665842056274414,
        9.125385284423828,
        23.085355758666992
      ],
      "min": [
        -22.830459594726563,
        -18.8382625579834,
        -3.5077247619628906
      ],
      "type": "VEC3"
    },
    {
      "bufferView": 2,
      "byteOffset": 3931920,
      "componentType": 5126,
      "count": 65532,
      "max": [
        0.9999675750732422,
        0.9997029900550842,
        0.9999333620071411
      ],
      "min": [
        -0.9999992847442627,
        -0.9998201131820679,
        -0.99996417760849
      ],
      "type": "VEC3"
    },
    {
      "bufferView": 1,
      "byteOffset": 2097024,
      "componentType": 5126,
      "count": 65532,
      "max": [
        0.9997529983520508,
        0.9731534719467163
      ],
      "min": [
        0.000244140625,
        0.0002483321586623788
      ],
      "type": "VEC2"
    },
    {
      "bufferView": 1,
      "byteOffset": 2621280,
      "componentType": 5126,
      "count": 65532,
      "max": [
        0.9997529983520508,
        0.9731534719467163
      ],
      "min": [
        0.000244140625,
        0.0002483321586623788
      ],
      "type": "VEC2"
    },
    {
      "bufferView": 0,
      "byteOffset": 2443500,
      "componentType": 5125,
      "count": 273945,
      "type": "SCALAR"
    },
    {
      "bufferView": 2,
      "byteOffset": 4718304,
      "componentType": 5126,
      "count": 65532,
      "max": [
        20.416767120361328,
        8.194306373596191,
        22.252845764160156
      ],
      "min": [
        -19.937152862548828,
        -22.21485137939453,
        -3.9207534790039063
      ],
      "type": "VEC3"
    },
    {
      "bufferView": 2,
      "byteOffset": 5504688,
      "componentType": 5126,
      "count": 65532,
      "max": [
        0.9999802708625793,
        0.9999625086784363,
        0.9999529719352722
      ],
      "min": [
        -0.9999691843986511,
        -0.99997478723526,
        -0.9999451041221619
      ],
      "type": "VEC3"
    },
    {
      "bufferView": 1,
      "byteOffset": 3145536,
      "componentType": 5126,
      "count": 65532,
      "max": [
        0.9996681213378906,
        0.9577635526657104
      ],
      "min": [
        0.000244140625,
        0.00037904514465481043
      ],
      "type": "VEC2"
    },
    {
      "bufferView": 1,
      "byteOffset": 3669792,
      "componentType": 5126,
      "count": 65532,
      "max": [
        0.9996681213378906,
        0.9577635526657104
      ],
      "min": [
        0.000244140625,
        0.00037904514465481043
      ],
      "type": "VEC2"
    },
    {
      "bufferView": 0,
      "byteOffset": 3539280,
      "componentType": 5125,
      "count": 311370,
      "type": "SCALAR"
    },
    {
      "bufferView": 2,
      "byteOffset": 6291072,
      "componentType": 5126,
      "count": 65532,
      "max": [
        20.417675018310547,
        24.707096099853516,
        22.590030670166016
      ],
      "min": [
        -25.660221099853516,
        -22.205625534057617,
        -3.838916778564453
      ],
      "type": "VEC3"
    },
    {
      "bufferView": 2,
      "byteOffset": 7077456,
      "componentType": 5126,
      "count": 65532,
      "max": [
        0.9999673366546631,
        0.9999666213989258,
        0.9999397397041321
      ],
      "min": [
        -0.9999958872795105,
        -0.9999805688858032,
        -0.9999796748161316
      ],
      "type": "VEC3"
    },
    {
      "bufferView": 1,
      "byteOffset": 4194048,
      "componentType": 5126,
      "count": 65532,
      "max": [
        0.9997371435165405,
        0.9792479276657104
      ],
      "min": [
        0.000244140625,
        0.00022824539337307215
      ],
      "type": "VEC2"
    },
    {
      "bufferView": 1,
      "byteOffset": 4718304,
      "componentType": 5126,
      "count": 65532,
      "max": [
        0.9997371435165405,
        0.9792479276657104
      ],
      "min": [
        0.000244140625,
        0.00022824539337307215
      ],
      "type": "VEC2"
    },
    {
      "bufferView": 0,
      "byteOffset": 4784760,
      "componentType": 5125,
      "count": 264585,
      "type": "SCALAR"
    },
    {
      "bufferView": 2,
      "byteOffset": 7863840,
      "componentType": 5126,
      "count": 12200,
      "max": [
        5.156632423400879,
        9.011829376220703,
        22.97181510925293
      ],
      "min": [
        -18.020206451416016,
        -15.15269660949707,
        9.572467803955078
      ],
      "type": "VEC3"
    },
    {
      "bufferView": 2,
      "byteOffset": 8010240,
      "componentType": 5126,
      "count": 12200,
      "max": [
        0.9998970627784729,
        0.9999591112136841,
        0.9996891617774963
      ],
      "min": [
        -0.9975234866142273,
        -0.999930739402771,
        -0.9998976588249207
      ],
      "type": "VEC3"
    },
    {
      "bufferView": 1,
      "byteOffset": 5242560,
      "componentType": 5126,
      "count": 12200,
      "max": [
        0.9994902014732361,
        0.9711515307426453
      ],
      "min": [
        0.000244140625,
        0.0002653194824233651
      ],
      "type": "VEC2"
    },
    {
      "bufferView": 1,
      "byteOffset": 5340160,
      "componentType": 5126,
      "count": 12200,
      "max": [
        0.9994902014732361,
        0.9711515307426453
      ],
      "min": [
        0.000244140625,
        0.0002653194824233651
      ],
      "type": "VEC2"
    },
    {
      "bufferView": 0,
      "byteOffset": 5843100,
      "componentType": 5125,
      "count": 39225,
      "type": "SCALAR"
    }
  ],
  "asset": {
    "extras": {
      "author": "Renderedbyzhai (https://sketchfab.com/danyangzhai)",
      "license": "CC-BY-4.0 (http://creativecommons.org/licenses/by/4.0/)",
      "source": "https://sketchfab.com/3d-models/salomon-xt6-sneaker-photo-scan-717a18bd58544842afbabc81523cda77",
      "title": "Salomon XT6 Sneaker Photo Scan"
    },
    "generator": "Sketchfab-15.50.0",
    "version": "2.0"
  },
  "bufferViews": [
    {
      "buffer": 0,
      "byteLength": 6000000,
      "name": "floatBufferViews",
      "target": 34963
    },
    {
      "buffer": 0,
      "byteLength": 5437760,
      "byteOffset": 6000000,
      "byteStride": 8,
      "name": "floatBufferViews",
      "target": 34962
    },
    {
      "buffer": 0,
      "byteLength": 8156640,
      "byteOffset": 11437760,
      "byteStride": 12,
      "name": "floatBufferViews",
      "target": 34962
    }
  ],
  "buffers": [
    {
      "byteLength": 19594400,
      "uri": "scene.bin"
    }
  ],
  "extensionsUsed": [
    "KHR_materials_unlit"
  ],
  "images": [
    {
      "uri": "textures/Salomon_XT6_Scan_Optimized_u1_v1_baseColor.png"
    }
  ],
  "materials": [
    {
      "doubleSided": true,
      "extensions": {
        "KHR_materials_unlit": {}
      },
      "name": "Salomon_XT6_Scan_Optimized_u1_v1",
      "pbrMetallicRoughness": {
        "baseColorTexture": {
          "index": 0
        },
        "metallicFactor": 0.0
      }
    }
  ],
  "meshes": [
    {
      "name": "Salomon_XT6_Scan_Optimized_Salomon_XT6_Scan_Optimized_u1_v1_0",
      "primitives": [
        {
          "attributes": {
            "NORMAL": 1,
            "POSITION": 0,
            "TEXCOORD_0": 2,
            "TEXCOORD_1": 3
          },
          "indices": 4,
          "material": 0,
          "mode": 4
        }
      ]
    },
    {
      "name": "Salomon_XT6_Scan_Optimized_Salomon_XT6_Scan_Optimized_u1_v1_0",
      "primitives": [
        {
          "attributes": {
            "NORMAL": 6,
            "POSITION": 5,
            "TEXCOORD_0": 7,
            "TEXCOORD_1": 8
          },
          "indices": 9,
          "material": 0,
          "mode": 4
        }
      ]
    },
    {
      "name": "Salomon_XT6_Scan_Optimized_Salomon_XT6_Scan_Optimized_u1_v1_0",
      "primitives": [
        {
          "attributes": {
            "NORMAL": 11,
            "POSITION": 10,
            "TEXCOORD_0": 12,
            "TEXCOORD_1": 13
          },
          "indices": 14,
          "material": 0,
          "mode": 4
        }
      ]
    },
    {
      "name": "Salomon_XT6_Scan_Optimized_Salomon_XT6_Scan_Optimized_u1_v1_0",
      "primitives": [
        {
          "attributes": {
            "NORMAL": 16,
            "POSITION": 15,
            "TEXCOORD_0": 17,
            "TEXCOORD_1": 18
          },
          "indices": 19,
          "material": 0,
          "mode": 4
        }
      ]
    },
    {
      "name": "Salomon_XT6_Scan_Optimized_Salomon_XT6_Scan_Optimized_u1_v1_0",
      "primitives": [
        {
          "attributes": {
            "NORMAL": 21,
            "POSITION": 20,
            "TEXCOORD_0": 22,
            "TEXCOORD_1": 23
          },
          "indices": 24,
          "material": 0,
          "mode": 4
        }
      ]
    },
    {
      "name": "Salomon_XT6_Scan_Optimized_Salomon_XT6_Scan_Optimized_u1_v1_0",
      "primitives": [
        {
          "attributes": {
            "NORMAL": 26,
            "POSITION": 25,
            "TEXCOORD_0": 27,
            "TEXCOORD_1": 28
          },
          "indices": 29,
          "material": 0,
          "mode": 4
        }
      ]
    }
  ],
  "nodes": [
    {
      "children": [
        1
      ],
      "matrix": [
        -0.8127741813659668,
        0.0012460991274566753,
        -0.5825775265693665,
        0.0,
        0.5765787363052368,
        0.14487175643444078,
        -0.8040952086448669,
        0.0,
        0.0833970457315445,
        -0.989449679851532,
        -0.11846650391817115,
        0.0,
        0.0,
        0.0,
        0.0,
        1.0
      ],
      "name": "Sketchfab_model"
    },
    {
      "children": [
        2
      ],
      "matrix": [
        1.0,
        0.0,
        0.0,
        0.0,
        0.0,
        -1.0,
        0.0,
        0.0,
        0.0,
        0.0,
        -1.0,
        0.0,
        0.0,
        0.0,
        0.0,
        1.0
      ],
      "name": "6f884c2bdff14c06a62d382082d8f790.fbx"
    },
    {
      "children": [
        3
      ],
      "name": "RootNode"
    },
    {
      "children": [
        4,
        5,
        6,
        7,
        8,
        9
      ],
      "name": "Salomon_XT6_Scan_Optimized"
    },
    {
      "mesh": 0,
      "name": "Salomon_XT6_Scan_Optimized_Salomon_XT6_Scan_Optimized_u1_v1_0"
    },
    {
      "mesh": 1,
      "name": "Salomon_XT6_Scan_Optimized_Salomon_XT6_Scan_Optimized_u1_v1_0"
    },
    {
      "mesh": 2,
      "name": "Salomon_XT6_Scan_Optimized_Salomon_XT6_Scan_Optimized_u1_v1_0"
    },
    {
      "mesh": 3,
      "name": "Salomon_XT6_Scan_Optimized_Salomon_XT6_Scan_Optimized_u1_v1_0"
    },
    {
      "mesh": 4,
      "name": "Salomon_XT6_Scan_Optimized_Salomon_XT6_Scan_Optimized_u1_v1_0"
    },
    {
      "mesh": 5,
      "name": "Salomon_XT6_Scan_Optimized_Salomon_XT6_Scan_Optimized_u1_v1_0"
    }
  ],
  "samplers": [
    {
      "magFilter": 9729,
      "minFilter": 9987,
      "wrapS": 10497,
      "wrapT": 10497
    }
  ],
  "scene": 0,
  "scenes": [
    {
      "name": "Sketchfab_Scene",
      "nodes": [
        0
      ]
    }
  ],
  "textures": [
    {
      "sampler": 0,
      "source": 0
    }
  ]
}
